<?xml version="1.0" encoding="utf-8"?>
<!-- Generator: Adobe Illustrator 18.1.0, SVG Export Plug-In . SVG Version: 6.00 Build 0)  -->
<!DOCTYPE svg PUBLIC "-//W3C//DTD SVG 1.1//EN" "http://www.w3.org/Graphics/SVG/1.1/DTD/svg11.dtd">
<svg version="1.1" id="Layer_1" xmlns="http://www.w3.org/2000/svg" xmlns:xlink="http://www.w3.org/1999/xlink" x="0px" y="0px"
	 viewBox="0 0 288 104" enable-background="new 0 0 288 104" xml:space="preserve">
<g>
	<path fill="#FFFFFF" d="M18.1,8H9.9V1.7h23.6V8h-8.3v30.6h-7.1V8z"/>
	<path fill="#FFFFFF" d="M62.8,1c10.9,0,19.5,8.4,19.5,19.2s-8.7,19.2-19.8,19.2S43,31,43,19.9C43,9.4,51.7,1,62.8,1z M62.8,32.7
		c6.7,0,12.2-5.5,12.2-12.7c0-7.1-5.5-12.5-12.2-12.5s-12.2,5.7-12.2,12.5C50.4,27,55.8,32.7,62.8,32.7z"/>
	<path fill="#FFFFFF" d="M96.4,1h4.9l22.4,25.5V1.9h7.1v37.4h-4.9l-22.4-25.6v24.7h-7.1V1z"/>
	<path fill="#FFFFFF" d="M154.9,21.7L142.2,1.9h8.6l7.9,12.8l7.7-12.8h8.6l-13,19.8v16.7h-7.1V21.7L154.9,21.7z"/>
	<path fill="#FFFFFF" d="M13.9,60.4h10.6c4.1,0,7.3,0.9,9.3,2.5c2.3,1.9,3.6,5.1,3.6,8.3c0,3.3-1.2,6.3-3.3,8.1
		c-1.5,1.2-2.8,1.9-5.1,2.3L40.6,97h-8.7l-10-14.7H21v14.8h-7.1V60.4z M23,77.3c4.5,0,7-2,7-5.5c0-3.5-2.3-5.5-7-5.5h-2.3v11.1H23z"
		/>
	<path fill="#FFFFFF" d="M69.9,59.6c10.9,0,19.5,8.4,19.5,19.2s-8.7,19.2-19.8,19.2s-19.5-8.4-19.5-19.5
		C50.1,68.1,59,59.6,69.9,59.6z M69.9,91.2c6.7,0,12.2-5.7,12.2-12.7s-5.5-12.5-12.2-12.5s-12.2,5.5-12.2,12.5
		C57.7,85.7,62.9,91.2,69.9,91.2z"/>
	<path fill="#FFFFFF" d="M103.7,60.4h9c4.2,0,7.1,0.7,8.9,2.3c2,1.6,3.3,4.4,3.3,7.4c0,2-0.6,3.9-1.3,5.2c-0.6,0.7-1.2,1.3-2.6,2.3
		c2.5,0.6,3.6,1,4.8,2.3c1.6,1.6,2.6,4.2,2.6,7c0,2.9-1.2,5.5-3.2,7.6c-2.2,1.9-5.1,2.8-9,2.8h-12.4L103.7,60.4L103.7,60.4z
		 M112.8,75.7c3.8,0,5.5-1.6,5.5-4.8c0-3.1-1.9-4.7-5.5-4.7h-2.2v9.5H112.8z M113.8,91.2c2.3,0,3.9-0.3,5.1-0.9
		c1.3-0.7,2.2-2.3,2.2-4.1s-0.7-3.2-2.2-4.1c-1.2-0.7-2.3-1-5.4-1h-2.6v10.2L113.8,91.2L113.8,91.2z"/>
	<path fill="#FFFFFF" d="M142.5,60.4h9c4.2,0,7.1,0.7,8.9,2.3c2,1.6,3.3,4.4,3.3,7.4c0,2-0.6,3.9-1.3,5.2c-0.6,0.7-1.2,1.3-2.6,2.3
		c2.5,0.6,3.6,1,4.8,2.3c1.6,1.6,2.6,4.2,2.6,7c0,2.9-1.2,5.5-3.2,7.6c-2.2,1.9-5.1,2.8-9,2.8h-12.4L142.5,60.4L142.5,60.4z
		 M151.7,75.7c3.8,0,5.5-1.6,5.5-4.8c0-3.1-1.9-4.7-5.5-4.7h-2v9.5H151.7z M152.7,91.2c2.3,0,3.9-0.3,5.1-0.9
		c1.3-0.7,2.2-2.3,2.2-4.1s-0.7-3.2-2.2-4.1c-1.2-0.7-2.3-1-5.4-1h-2.6v10.2L152.7,91.2L152.7,91.2z"/>
	<path fill="#FFFFFF" d="M181.4,60.4h7.1V97h-7.1V60.4z"/>
	<path fill="#FFFFFF" d="M204.9,59.6h4.9l22.4,25.5V60.5h7.1v37.4h-4.9l-22.3-25.6V97h-7.3V59.6z"/>
	<path fill="#FFFFFF" d="M257.6,86.4c1.6,3.2,4.4,4.9,7.7,4.9c3.2,0,5.5-2.3,5.5-5.2c0-1.5-0.7-2.8-2-3.8c-0.7-0.6-2.2-1-5.1-2.3
		c-6.7-2.3-9-5.1-9-9.9c0-6.1,4.8-10.6,11.5-10.6c3.9,0,7.7,1.3,10.8,4.1l-3.8,4.9c-1.9-2.2-3.6-2.9-6-2.9c-2.9,0-5.2,1.9-5.2,4.1
		c0,2,1.2,3.1,5.5,4.7c4.1,1.5,5.5,2.3,7.3,3.8c2.2,1.9,3.2,4.4,3.2,7.7c0,7.1-5.2,12.1-12.8,12.1c-5.4,0-9.3-2.3-12.5-7L257.6,86.4
		z"/>
</g>
</svg>
